<svg width="24" height="21" viewBox="0 0 24 21" fill="none" xmlns="http://www.w3.org/2000/svg">
<path d="M0.968446 1.9995H2.64055L5.14707 13.2951C4.52265 13.5929 3.99764 14.0645 3.63513 14.6531C3.27263 15.2418 3.08806 15.9225 3.10363 16.6134C3.06138 17.5149 3.37781 18.3964 3.98386 19.0657C4.58992 19.7349 5.4364 20.1377 6.33862 20.1859H19.6128C19.747 20.1904 19.8808 20.1678 20.0061 20.1195C20.1314 20.0713 20.2457 19.9983 20.3422 19.9051C20.4388 19.8118 20.5155 19.7001 20.5679 19.5766C20.6204 19.4531 20.6474 19.3203 20.6474 19.1862C20.6474 19.052 20.6204 18.9193 20.5679 18.7958C20.5155 18.6723 20.4388 18.5605 20.3422 18.4673C20.2457 18.374 20.1314 18.3011 20.0061 18.2528C19.8808 18.2046 19.747 18.182 19.6128 18.1864H6.33753C5.96901 18.1324 5.63525 17.9393 5.40504 17.6469C5.17482 17.3544 5.06568 16.9849 5.1001 16.6145C5.06526 16.2447 5.17351 15.8757 5.40263 15.5831C5.63175 15.2906 5.96434 15.0968 6.33207 15.0415H19.6128C19.8189 15.0416 20.02 14.9782 20.1887 14.8599C20.3574 14.7416 20.4854 14.5742 20.5553 14.3805L23.941 5.00912C23.9953 4.85812 24.0125 4.69628 23.991 4.53727C23.9695 4.37825 23.9101 4.22674 23.8177 4.09549C23.7253 3.96425 23.6026 3.85714 23.46 3.7832C23.3174 3.70926 23.1591 3.67067 22.9985 3.67066H5.06188L4.42187 0.784311C4.37283 0.561887 4.24918 0.362872 4.07141 0.220233C3.89364 0.0775937 3.67241 -0.000107976 3.44438 1.12616e-07H0.968446C0.708696 0.00857091 0.462453 0.117656 0.28174 0.30421C0.101028 0.490764 0 0.740175 0 0.999752C0 1.25933 0.101028 1.50874 0.28174 1.69529C0.462453 1.88185 0.708696 1.99093 0.968446 1.9995ZM21.5689 5.67235L18.9094 13.0442H7.14027L5.50202 5.67235H21.5689Z" fill="white"/>
</svg>
